<svg width="24" height="18" viewBox="0 0 24 18" fill="none" xmlns="http://www.w3.org/2000/svg">
<path d="M0.666656 1.70833C0.666656 1.32156 0.820302 0.950627 1.09379 0.677136C1.36728 0.403646 1.73822 0.25 2.12499 0.25H22.5417C22.9284 0.25 23.2994 0.403646 23.5729 0.677136C23.8463 0.950627 24 1.32156 24 1.70833C24 2.09511 23.8463 2.46604 23.5729 2.73953C23.2994 3.01302 22.9284 3.16667 22.5417 3.16667H2.12499C1.73822 3.16667 1.36728 3.01302 1.09379 2.73953C0.820302 2.46604 0.666656 2.09511 0.666656 1.70833ZM0.666656 9C0.666656 8.61323 0.820302 8.24229 1.09379 7.9688C1.36728 7.69531 1.73822 7.54167 2.12499 7.54167H22.5417C22.9284 7.54167 23.2994 7.69531 23.5729 7.9688C23.8463 8.24229 24 8.61323 24 9C24 9.38677 23.8463 9.75771 23.5729 10.0312C23.2994 10.3047 22.9284 10.4583 22.5417 10.4583H2.12499C1.73822 10.4583 1.36728 10.3047 1.09379 10.0312C0.820302 9.75771 0.666656 9.38677 0.666656 9ZM0.666656 16.2917C0.666656 15.9049 0.820302 15.534 1.09379 15.2605C1.36728 14.987 1.73822 14.8333 2.12499 14.8333H22.5417C22.9284 14.8333 23.2994 14.987 23.5729 15.2605C23.8463 15.534 24 15.9049 24 16.2917C24 16.6784 23.8463 17.0494 23.5729 17.3229C23.2994 17.5964 22.9284 17.75 22.5417 17.75H2.12499C1.73822 17.75 1.36728 17.5964 1.09379 17.3229C0.820302 17.0494 0.666656 16.6784 0.666656 16.2917Z" fill="#00C2CB"/>
</svg>
