<svg width="19" height="20" viewBox="0 0 19 20" fill="none" xmlns="http://www.w3.org/2000/svg">
<path d="M9.5 2C8.43913 2 7.42172 2.42143 6.67157 3.17157C5.92143 3.92172 5.5 4.93913 5.5 6C5.5 7.06087 5.92143 8.07828 6.67157 8.82843C7.42172 9.57857 8.43913 10 9.5 10C10.5609 10 11.5783 9.57857 12.3284 8.82843C13.0786 8.07828 13.5 7.06087 13.5 6C13.5 4.93913 13.0786 3.92172 12.3284 3.17157C11.5783 2.42143 10.5609 2 9.5 2ZM3.5 6C3.5 4.4087 4.13214 2.88258 5.25736 1.75736C6.38258 0.632141 7.9087 0 9.5 0C11.0913 0 12.6174 0.632141 13.7426 1.75736C14.8679 2.88258 15.5 4.4087 15.5 6C15.5 7.5913 14.8679 9.11742 13.7426 10.2426C12.6174 11.3679 11.0913 12 9.5 12C7.9087 12 6.38258 11.3679 5.25736 10.2426C4.13214 9.11742 3.5 7.5913 3.5 6ZM5.5 16C4.70435 16 3.94129 16.3161 3.37868 16.8787C2.81607 17.4413 2.5 18.2044 2.5 19C2.5 19.2652 2.39464 19.5196 2.20711 19.7071C2.01957 19.8946 1.76522 20 1.5 20C1.23478 20 0.98043 19.8946 0.792893 19.7071C0.605357 19.5196 0.5 19.2652 0.5 19C0.5 17.6739 1.02678 16.4021 1.96447 15.4645C2.90215 14.5268 4.17392 14 5.5 14H13.5C14.8261 14 16.0979 14.5268 17.0355 15.4645C17.9732 16.4021 18.5 17.6739 18.5 19C18.5 19.2652 18.3946 19.5196 18.2071 19.7071C18.0196 19.8946 17.7652 20 17.5 20C17.2348 20 16.9804 19.8946 16.7929 19.7071C16.6054 19.5196 16.5 19.2652 16.5 19C16.5 18.2044 16.1839 17.4413 15.6213 16.8787C15.0587 16.3161 14.2956 16 13.5 16H5.5Z" fill="white"/>
</svg>
