<svg width="34" height="34" viewBox="0 0 34 34" fill="none" xmlns="http://www.w3.org/2000/svg">
<path fill-rule="evenodd" clip-rule="evenodd" d="M17.0001 3.66659C14.668 3.66616 12.3766 4.2774 10.3546 5.4393C8.33257 6.6012 6.65067 8.27312 5.47675 10.2882C4.30283 12.3032 3.67796 14.5909 3.6645 16.923C3.65105 19.255 4.24948 21.5498 5.40006 23.5783C6.17774 22.5675 7.17744 21.7492 8.32187 21.1866C9.46629 20.6239 10.7248 20.3319 12.0001 20.3333H22.0001C23.2753 20.3319 24.5338 20.6239 25.6783 21.1866C26.8227 21.7492 27.8224 22.5675 28.6001 23.5783C29.7506 21.5498 30.3491 19.255 30.3356 16.923C30.3222 14.5909 29.6973 12.3032 28.5234 10.2882C27.3494 8.27312 25.6675 6.6012 23.6455 5.4393C21.6235 4.2774 19.3321 3.66616 17.0001 3.66659ZM30.2384 27.1266C32.4668 24.2215 33.6721 20.6612 33.6667 16.9999C33.6667 7.79492 26.2051 0.333252 17.0001 0.333252C7.79506 0.333252 0.333393 7.79492 0.333393 16.9999C0.32789 20.6612 1.53324 24.2216 3.76173 27.1266L3.75339 27.1566L4.34506 27.8449C5.9082 29.6724 7.84903 31.1393 10.0338 32.1443C12.2185 33.1494 14.5952 33.6687 17.0001 33.6666C20.3789 33.6728 23.6791 32.6464 26.4584 30.7249C27.6433 29.9063 28.7177 28.9383 29.6551 27.8449L30.2467 27.1566L30.2384 27.1266ZM17.0001 6.99992C15.674 6.99992 14.4022 7.5267 13.4645 8.46439C12.5268 9.40207 12.0001 10.6738 12.0001 11.9999C12.0001 13.326 12.5268 14.5978 13.4645 15.5355C14.4022 16.4731 15.674 16.9999 17.0001 16.9999C18.3261 16.9999 19.5979 16.4731 20.5356 15.5355C21.4733 14.5978 22.0001 13.326 22.0001 11.9999C22.0001 10.6738 21.4733 9.40207 20.5356 8.46439C19.5979 7.5267 18.3261 6.99992 17.0001 6.99992Z" fill="white"/>
</svg>
